{
    "asset" : {
        "generator" : "Khronos glTF Blender I/O v3.4.50",
        "version" : "2.0"
    },
    "extensionsUsed" : [
        "KHR_materials_specular",
        "KHR_materials_ior"
    ],
    "scene" : 0,
    "scenes" : [
        {
            "name" : "Scene",
            "nodes" : [
                0
            ]
        }
    ],
    "nodes" : [
        {
            "mesh" : 0,
            "name" : "Jacket",
            "rotation" : [
                0.70710688829422,
                0,
                0,
                0.7071066498756409
            ],
            "scale" : [
                0.02770812064409256,
                0.02770812064409256,
                0.02770812064409256
            ]
        }
    ],
    "materials" : [
        {
            "doubleSided" : true,
            "extensions" : {
                "KHR_materials_specular" : {
                    "specularColorFactor" : [
                        0.17785182815030126,
                        0.17785182815030126,
                        0.17785182815030126
                    ]
                },
                "KHR_materials_ior" : {
                    "ior" : 1.4500000476837158
                }
            },
            "name" : "FABRIC_1_FRONT_2963",
            "pbrMetallicRoughness" : {
                "metallicFactor" : 0,
                "roughnessFactor" : 0.8304027318954468
            }
        },
        {
            "doubleSided" : true,
            "extensions" : {
                "KHR_materials_specular" : {
                    "specularColorFactor" : [
                        0.17785182815030126,
                        0.17785182815030126,
                        0.17785182815030126
                    ]
                },
                "KHR_materials_ior" : {
                    "ior" : 1.4500000476837158
                }
            },
            "name" : "FABRIC_2_FRONT_2973",
            "pbrMetallicRoughness" : {
                "metallicFactor" : 0,
                "roughnessFactor" : 0.8304027318954468
            }
        },
        {
            "doubleSided" : true,
            "extensions" : {
                "KHR_materials_specular" : {
                    "specularColorFactor" : [
                        0.17785182815030126,
                        0.17785182815030126,
                        0.17785182815030126
                    ]
                },
                "KHR_materials_ior" : {
                    "ior" : 1.4500000476837158
                }
            },
            "name" : "FABRIC_FRONT_2968",
            "pbrMetallicRoughness" : {
                "metallicFactor" : 0,
                "roughnessFactor" : 0.8304027318954468
            }
        },
        {
            "doubleSided" : true,
            "extensions" : {
                "KHR_materials_specular" : {
                    "specularColorFactor" : [
                        0.17785182815030126,
                        0.17785182815030126,
                        0.17785182815030126
                    ]
                },
                "KHR_materials_ior" : {
                    "ior" : 1.4500000476837158
                }
            },
            "name" : "Fabric30468_FRONT_7640",
            "pbrMetallicRoughness" : {
                "metallicFactor" : 0,
                "roughnessFactor" : 0.8304027318954468
            }
        },
        {
            "doubleSided" : true,
            "extensions" : {
                "KHR_materials_specular" : {
                    "specularColorFactor" : [
                        0.17785182815030126,
                        0.17785182815030126,
                        0.17785182815030126
                    ]
                },
                "KHR_materials_ior" : {
                    "ior" : 1.4500000476837158
                }
            },
            "name" : "Fabric30468_SIDE_7640",
            "pbrMetallicRoughness" : {
                "baseColorFactor" : [
                    0.8196079730987549,
                    0.8196079730987549,
                    0.8196079730987549,
                    1
                ],
                "metallicFactor" : 0,
                "roughnessFactor" : 0.8304027318954468
            }
        },
        {
            "doubleSided" : true,
            "extensions" : {
                "KHR_materials_specular" : {
                    "specularColorFactor" : [
                        0.21605914144166732,
                        0.21605914144166732,
                        0.21605914144166732
                    ]
                },
                "KHR_materials_ior" : {
                    "ior" : 1.4500000476837158
                }
            },
            "name" : "Material56434",
            "pbrMetallicRoughness" : {
                "metallicFactor" : 0,
                "roughnessFactor" : 0.7741681933403015
            }
        },
        {
            "doubleSided" : true,
            "extensions" : {
                "KHR_materials_specular" : {
                    "specularColorFactor" : [
                        0.21605914144166732,
                        0.21605914144166732,
                        0.21605914144166732
                    ]
                },
                "KHR_materials_ior" : {
                    "ior" : 1.4500000476837158
                }
            },
            "name" : "Material56432",
            "pbrMetallicRoughness" : {
                "metallicFactor" : 0,
                "roughnessFactor" : 0.7741681933403015
            }
        },
        {
            "doubleSided" : true,
            "extensions" : {
                "KHR_materials_specular" : {
                    "specularColorFactor" : [
                        0.21605914144166732,
                        0.21605914144166732,
                        0.21605914144166732
                    ]
                },
                "KHR_materials_ior" : {
                    "ior" : 1.4500000476837158
                }
            },
            "name" : "Material56436",
            "pbrMetallicRoughness" : {
                "metallicFactor" : 0,
                "roughnessFactor" : 0.7741681933403015
            }
        },
        {
            "doubleSided" : true,
            "extensions" : {
                "KHR_materials_specular" : {
                    "specularColorFactor" : [
                        0.21605914144166732,
                        0.21605914144166732,
                        0.21605914144166732
                    ]
                },
                "KHR_materials_ior" : {
                    "ior" : 1.4500000476837158
                }
            },
            "name" : "Material56438",
            "pbrMetallicRoughness" : {
                "metallicFactor" : 0,
                "roughnessFactor" : 0.7741681933403015
            }
        }
    ],
    "meshes" : [
        {
            "name" : "Jacket",
            "primitives" : [
                {
                    "attributes" : {
                        "POSITION" : 0,
                        "TEXCOORD_0" : 1,
                        "NORMAL" : 2
                    },
                    "indices" : 3,
                    "material" : 0
                },
                {
                    "attributes" : {
                        "POSITION" : 4,
                        "TEXCOORD_0" : 5,
                        "NORMAL" : 6
                    },
                    "indices" : 7,
                    "material" : 1
                },
                {
                    "attributes" : {
                        "POSITION" : 8,
                        "TEXCOORD_0" : 9,
                        "NORMAL" : 10
                    },
                    "indices" : 11,
                    "material" : 2
                },
                {
                    "attributes" : {
                        "POSITION" : 12,
                        "TEXCOORD_0" : 13,
                        "NORMAL" : 14
                    },
                    "indices" : 15,
                    "material" : 3
                },
                {
                    "attributes" : {
                        "POSITION" : 16,
                        "TEXCOORD_0" : 17,
                        "NORMAL" : 18
                    },
                    "indices" : 19,
                    "material" : 4
                },
                {
                    "attributes" : {
                        "POSITION" : 20,
                        "TEXCOORD_0" : 21,
                        "NORMAL" : 22
                    },
                    "indices" : 23,
                    "material" : 5
                },
                {
                    "attributes" : {
                        "POSITION" : 24,
                        "TEXCOORD_0" : 25,
                        "NORMAL" : 26
                    },
                    "indices" : 27,
                    "material" : 6
                },
                {
                    "attributes" : {
                        "POSITION" : 28,
                        "TEXCOORD_0" : 29,
                        "NORMAL" : 30
                    },
                    "indices" : 31,
                    "material" : 7
                },
                {
                    "attributes" : {
                        "POSITION" : 32,
                        "TEXCOORD_0" : 33,
                        "NORMAL" : 34
                    },
                    "indices" : 35,
                    "material" : 8
                }
            ]
        }
    ],
    "accessors" : [
        {
            "bufferView" : 0,
            "componentType" : 5126,
            "count" : 2514,
            "max" : [
                140.43441772460938,
                98.11422729492188,
                -1299.0145263671875
            ],
            "min" : [
                -144.61631774902344,
                -143.25465393066406,
                -1605.77392578125
            ],
            "type" : "VEC3"
        },
        {
            "bufferView" : 1,
            "componentType" : 5126,
            "count" : 2514,
            "type" : "VEC2"
        },
        {
            "bufferView" : 2,
            "componentType" : 5126,
            "count" : 2514,
            "type" : "VEC3"
        },
        {
            "bufferView" : 3,
            "componentType" : 5123,
            "count" : 11796,
            "type" : "SCALAR"
        },
        {
            "bufferView" : 4,
            "componentType" : 5126,
            "count" : 8511,
            "max" : [
                484.7479553222656,
                96.68034362792969,
                -1167.9599609375
            ],
            "min" : [
                -484.8447265625,
                -146.34088134765625,
                -1646.9873046875
            ],
            "type" : "VEC3"
        },
        {
            "bufferView" : 5,
            "componentType" : 5126,
            "count" : 8511,
            "type" : "VEC2"
        },
        {
            "bufferView" : 6,
            "componentType" : 5126,
            "count" : 8511,
            "type" : "VEC3"
        },
        {
            "bufferView" : 7,
            "componentType" : 5123,
            "count" : 38064,
            "type" : "SCALAR"
        },
        {
            "bufferView" : 8,
            "componentType" : 5126,
            "count" : 5946,
            "max" : [
                493.3099365234375,
                59.036354064941406,
                -1159.69970703125
            ],
            "min" : [
                -493.3343811035156,
                -114.40165710449219,
                -1640.587890625
            ],
            "type" : "VEC3"
        },
        {
            "bufferView" : 9,
            "componentType" : 5126,
            "count" : 5946,
            "type" : "VEC2"
        },
        {
            "bufferView" : 10,
            "componentType" : 5126,
            "count" : 5946,
            "type" : "VEC3"
        },
        {
            "bufferView" : 11,
            "componentType" : 5123,
            "count" : 26880,
            "type" : "SCALAR"
        },
        {
            "bufferView" : 12,
            "componentType" : 5126,
            "count" : 140,
            "max" : [
                97.16554260253906,
                100.54254150390625,
                -1280.9625244140625
            ],
            "min" : [
                -98.404541015625,
                23.307846069335938,
                -1570.76806640625
            ],
            "type" : "VEC3"
        },
        {
            "bufferView" : 13,
            "componentType" : 5126,
            "count" : 140,
            "type" : "VEC2"
        },
        {
            "bufferView" : 14,
            "componentType" : 5126,
            "count" : 140,
            "type" : "VEC3"
        },
        {
            "bufferView" : 15,
            "componentType" : 5123,
            "count" : 396,
            "type" : "SCALAR"
        },
        {
            "bufferView" : 16,
            "componentType" : 5126,
            "count" : 546,
            "max" : [
                97.16554260253906,
                100.54254150390625,
                -1280.9625244140625
            ],
            "min" : [
                -98.404541015625,
                23.307846069335938,
                -1570.76806640625
            ],
            "type" : "VEC3"
        },
        {
            "bufferView" : 17,
            "componentType" : 5126,
            "count" : 546,
            "type" : "VEC2"
        },
        {
            "bufferView" : 18,
            "componentType" : 5126,
            "count" : 546,
            "type" : "VEC3"
        },
        {
            "bufferView" : 19,
            "componentType" : 5123,
            "count" : 2520,
            "type" : "SCALAR"
        },
        {
            "bufferView" : 20,
            "componentType" : 5126,
            "count" : 500,
            "max" : [
                -91.16380310058594,
                96.16285705566406,
                -1284.130126953125
            ],
            "min" : [
                -99.8370132446289,
                86.70762634277344,
                -1295.277587890625
            ],
            "type" : "VEC3"
        },
        {
            "bufferView" : 21,
            "componentType" : 5126,
            "count" : 500,
            "type" : "VEC2"
        },
        {
            "bufferView" : 22,
            "componentType" : 5126,
            "count" : 500,
            "type" : "VEC3"
        },
        {
            "bufferView" : 23,
            "componentType" : 5123,
            "count" : 2472,
            "type" : "SCALAR"
        },
        {
            "bufferView" : 24,
            "componentType" : 5126,
            "count" : 3601,
            "max" : [
                -94.75895690917969,
                95.64776611328125,
                -1266.782470703125
            ],
            "min" : [
                -103.23751068115234,
                84.14556121826172,
                -1288.3656005859375
            ],
            "type" : "VEC3"
        },
        {
            "bufferView" : 25,
            "componentType" : 5126,
            "count" : 3601,
            "type" : "VEC2"
        },
        {
            "bufferView" : 26,
            "componentType" : 5126,
            "count" : 3601,
            "type" : "VEC3"
        },
        {
            "bufferView" : 27,
            "componentType" : 5123,
            "count" : 18048,
            "type" : "SCALAR"
        },
        {
            "bufferView" : 28,
            "componentType" : 5126,
            "count" : 1996,
            "max" : [
                20.516700744628906,
                33.0830192565918,
                -1566.2891845703125
            ],
            "min" : [
                -25.66329574584961,
                25.15703010559082,
                -1570.679931640625
            ],
            "type" : "VEC3"
        },
        {
            "bufferView" : 29,
            "componentType" : 5126,
            "count" : 1996,
            "type" : "VEC2"
        },
        {
            "bufferView" : 30,
            "componentType" : 5126,
            "count" : 1996,
            "type" : "VEC3"
        },
        {
            "bufferView" : 31,
            "componentType" : 5123,
            "count" : 4680,
            "type" : "SCALAR"
        },
        {
            "bufferView" : 32,
            "componentType" : 5126,
            "count" : 1677,
            "max" : [
                95.35781860351562,
                92.88313293457031,
                -1280.7529296875
            ],
            "min" : [
                -97.88385772705078,
                87.57785034179688,
                -1292.2017822265625
            ],
            "type" : "VEC3"
        },
        {
            "bufferView" : 33,
            "componentType" : 5126,
            "count" : 1677,
            "type" : "VEC2"
        },
        {
            "bufferView" : 34,
            "componentType" : 5126,
            "count" : 1677,
            "type" : "VEC3"
        },
        {
            "bufferView" : 35,
            "componentType" : 5123,
            "count" : 7860,
            "type" : "SCALAR"
        }
    ],
    "bufferViews" : [
        {
            "buffer" : 0,
            "byteLength" : 30168,
            "byteOffset" : 0,
            "target" : 34962
        },
        {
            "buffer" : 0,
            "byteLength" : 20112,
            "byteOffset" : 30168,
            "target" : 34962
        },
        {
            "buffer" : 0,
            "byteLength" : 30168,
            "byteOffset" : 50280,
            "target" : 34962
        },
        {
            "buffer" : 0,
            "byteLength" : 23592,
            "byteOffset" : 80448,
            "target" : 34963
        },
        {
            "buffer" : 0,
            "byteLength" : 102132,
            "byteOffset" : 104040,
            "target" : 34962
        },
        {
            "buffer" : 0,
            "byteLength" : 68088,
            "byteOffset" : 206172,
            "target" : 34962
        },
        {
            "buffer" : 0,
            "byteLength" : 102132,
            "byteOffset" : 274260,
            "target" : 34962
        },
        {
            "buffer" : 0,
            "byteLength" : 76128,
            "byteOffset" : 376392,
            "target" : 34963
        },
        {
            "buffer" : 0,
            "byteLength" : 71352,
            "byteOffset" : 452520,
            "target" : 34962
        },
        {
            "buffer" : 0,
            "byteLength" : 47568,
            "byteOffset" : 523872,
            "target" : 34962
        },
        {
            "buffer" : 0,
            "byteLength" : 71352,
            "byteOffset" : 571440,
            "target" : 34962
        },
        {
            "buffer" : 0,
            "byteLength" : 53760,
            "byteOffset" : 642792,
            "target" : 34963
        },
        {
            "buffer" : 0,
            "byteLength" : 1680,
            "byteOffset" : 696552,
            "target" : 34962
        },
        {
            "buffer" : 0,
            "byteLength" : 1120,
            "byteOffset" : 698232,
            "target" : 34962
        },
        {
            "buffer" : 0,
            "byteLength" : 1680,
            "byteOffset" : 699352,
            "target" : 34962
        },
        {
            "buffer" : 0,
            "byteLength" : 792,
            "byteOffset" : 701032,
            "target" : 34963
        },
        {
            "buffer" : 0,
            "byteLength" : 6552,
            "byteOffset" : 701824,
            "target" : 34962
        },
        {
            "buffer" : 0,
            "byteLength" : 4368,
            "byteOffset" : 708376,
            "target" : 34962
        },
        {
            "buffer" : 0,
            "byteLength" : 6552,
            "byteOffset" : 712744,
            "target" : 34962
        },
        {
            "buffer" : 0,
            "byteLength" : 5040,
            "byteOffset" : 719296,
            "target" : 34963
        },
        {
            "buffer" : 0,
            "byteLength" : 6000,
            "byteOffset" : 724336,
            "target" : 34962
        },
        {
            "buffer" : 0,
            "byteLength" : 4000,
            "byteOffset" : 730336,
            "target" : 34962
        },
        {
            "buffer" : 0,
            "byteLength" : 6000,
            "byteOffset" : 734336,
            "target" : 34962
        },
        {
            "buffer" : 0,
            "byteLength" : 4944,
            "byteOffset" : 740336,
            "target" : 34963
        },
        {
            "buffer" : 0,
            "byteLength" : 43212,
            "byteOffset" : 745280,
            "target" : 34962
        },
        {
            "buffer" : 0,
            "byteLength" : 28808,
            "byteOffset" : 788492,
            "target" : 34962
        },
        {
            "buffer" : 0,
            "byteLength" : 43212,
            "byteOffset" : 817300,
            "target" : 34962
        },
        {
            "buffer" : 0,
            "byteLength" : 36096,
            "byteOffset" : 860512,
            "target" : 34963
        },
        {
            "buffer" : 0,
            "byteLength" : 23952,
            "byteOffset" : 896608,
            "target" : 34962
        },
        {
            "buffer" : 0,
            "byteLength" : 15968,
            "byteOffset" : 920560,
            "target" : 34962
        },
        {
            "buffer" : 0,
            "byteLength" : 23952,
            "byteOffset" : 936528,
            "target" : 34962
        },
        {
            "buffer" : 0,
            "byteLength" : 9360,
            "byteOffset" : 960480,
            "target" : 34963
        },
        {
            "buffer" : 0,
            "byteLength" : 20124,
            "byteOffset" : 969840,
            "target" : 34962
        },
        {
            "buffer" : 0,
            "byteLength" : 13416,
            "byteOffset" : 989964,
            "target" : 34962
        },
        {
            "buffer" : 0,
            "byteLength" : 20124,
            "byteOffset" : 1003380,
            "target" : 34962
        },
        {
            "buffer" : 0,
            "byteLength" : 15720,
            "byteOffset" : 1023504,
            "target" : 34963
        }
    ],
    "buffers" : [
        {
            "byteLength" : 1039224,
            "uri" : "data:application/octet-stream;base64,"
        }
    ]
}
