{
    "asset" : {
        "generator" : "Khronos glTF Blender I/O v3.4.50",
        "version" : "2.0"
    },
    "scene" : 0,
    "scenes" : [
        {
            "name" : "Scene",
            "nodes" : [
                4
            ]
        }
    ],
    "nodes" : [
        {
            "mesh" : 0,
            "name" : "FL",
            "translation" : [
                8.126192092895508,
                11.475374221801758,
                1.754905343055725
            ]
        },
        {
            "mesh" : 1,
            "name" : "FR",
            "translation" : [
                -8.286584854125977,
                11.475373268127441,
                1.754905343055725
            ]
        },
        {
            "mesh" : 2,
            "name" : "RL",
            "translation" : [
                8.244009971618652,
                -11.13564682006836,
                1.567275047302246
            ]
        },
        {
            "mesh" : 3,
            "name" : "RR",
            "translation" : [
                -8.404383659362793,
                -11.13564682006836,
                1.5672754049301147
            ]
        },
        {
            "children" : [
                0,
                1,
                2,
                3
            ],
            "mesh" : 4,
            "name" : "Body",
            "rotation" : [
                0.5000000596046448,
                0.5,
                -0.5,
                0.4999999701976776
            ],
            "scale" : [
                11.243025779724121,
                11.243025779724121,
                11.243025779724121
            ],
            "translation" : [
                0,
                4.465173244476318,
                0
            ]
        }
    ],
    "materials" : [
        {
            "doubleSided" : true,
            "name" : "Carbon.001",
            "pbrMetallicRoughness" : {
                "baseColorFactor" : [
                    0,
                    0,
                    0,
                    1
                ],
                "metallicFactor" : 0,
                "roughnessFactor" : 0.5
            }
        },
        {
            "doubleSided" : true,
            "name" : "Carbon.003",
            "pbrMetallicRoughness" : {
                "baseColorFactor" : [
                    0.010022825561463833,
                    0.010022825561463833,
                    0.010022825561463833,
                    1
                ],
                "metallicFactor" : 0,
                "roughnessFactor" : 0.5
            }
        },
        {
            "doubleSided" : true,
            "name" : "Window Glass",
            "pbrMetallicRoughness" : {}
        },
        {
            "doubleSided" : true,
            "name" : "Carbon",
            "pbrMetallicRoughness" : {
                "baseColorFactor" : [
                    0.010022825561463833,
                    0.010022825561463833,
                    0.010022825561463833,
                    1
                ],
                "metallicFactor" : 0,
                "roughnessFactor" : 0.5
            }
        },
        {
            "doubleSided" : true,
            "name" : "Carbon.002",
            "pbrMetallicRoughness" : {
                "baseColorFactor" : [
                    0.03310476616024971,
                    0.03310476616024971,
                    0.03310476616024971,
                    1
                ],
                "metallicFactor" : 0,
                "roughnessFactor" : 0.5
            }
        },
        {
            "doubleSided" : true,
            "name" : "Car Texture",
            "pbrMetallicRoughness" : {
                "baseColorFactor" : [
                    0.01786760799586773,
                    0.01786760799586773,
                    0.01786760799586773,
                    1
                ],
                "metallicFactor" : 0.30927833914756775,
                "roughnessFactor" : 0
            }
        },
        {
            "doubleSided" : true,
            "name" : "Rear Lights",
            "pbrMetallicRoughness" : {}
        }
    ],
    "meshes" : [
        {
            "name" : "Koenisegg one.436",
            "primitives" : [
                {
                    "attributes" : {
                        "POSITION" : 0,
                        "TEXCOORD_0" : 1,
                        "NORMAL" : 2
                    },
                    "indices" : 3,
                    "material" : 0
                }
            ]
        },
        {
            "name" : "Koenisegg one.429",
            "primitives" : [
                {
                    "attributes" : {
                        "POSITION" : 4,
                        "TEXCOORD_0" : 5,
                        "NORMAL" : 6
                    },
                    "indices" : 7,
                    "material" : 0
                }
            ]
        },
        {
            "name" : "Koenisegg one.500",
            "primitives" : [
                {
                    "attributes" : {
                        "POSITION" : 8,
                        "TEXCOORD_0" : 9,
                        "NORMAL" : 10
                    },
                    "indices" : 11,
                    "material" : 0
                }
            ]
        },
        {
            "name" : "Koenisegg one.501",
            "primitives" : [
                {
                    "attributes" : {
                        "POSITION" : 12,
                        "TEXCOORD_0" : 13,
                        "NORMAL" : 14
                    },
                    "indices" : 15,
                    "material" : 0
                }
            ]
        },
        {
            "name" : "Koenisegg one.341",
            "primitives" : [
                {
                    "attributes" : {
                        "POSITION" : 16,
                        "TEXCOORD_0" : 17,
                        "NORMAL" : 18
                    },
                    "indices" : 19,
                    "material" : 1
                },
                {
                    "attributes" : {
                        "POSITION" : 20,
                        "TEXCOORD_0" : 21,
                        "NORMAL" : 22
                    },
                    "indices" : 23,
                    "material" : 2
                },
                {
                    "attributes" : {
                        "POSITION" : 24,
                        "TEXCOORD_0" : 25,
                        "NORMAL" : 26
                    },
                    "indices" : 27,
                    "material" : 3
                },
                {
                    "attributes" : {
                        "POSITION" : 28,
                        "TEXCOORD_0" : 29,
                        "NORMAL" : 30
                    },
                    "indices" : 31,
                    "material" : 4
                },
                {
                    "attributes" : {
                        "POSITION" : 32,
                        "TEXCOORD_0" : 33,
                        "NORMAL" : 34
                    },
                    "indices" : 35,
                    "material" : 5
                },
                {
                    "attributes" : {
                        "POSITION" : 36,
                        "TEXCOORD_0" : 37,
                        "NORMAL" : 38
                    },
                    "indices" : 39,
                    "material" : 0
                },
                {
                    "attributes" : {
                        "POSITION" : 40,
                        "TEXCOORD_0" : 41,
                        "NORMAL" : 42
                    },
                    "indices" : 43,
                    "material" : 6
                }
            ]
        }
    ],
    "accessors" : [
        {
            "bufferView" : 0,
            "componentType" : 5126,
            "count" : 3506,
            "max" : [
                0.1388835906982422,
                2.772022247314453,
                2.779231548309326
            ],
            "min" : [
                -2.0976600646972656,
                -2.7751083374023438,
                -2.756951332092285
            ],
            "type" : "VEC3"
        },
        {
            "bufferView" : 1,
            "componentType" : 5126,
            "count" : 3506,
            "type" : "VEC2"
        },
        {
            "bufferView" : 2,
            "componentType" : 5126,
            "count" : 3506,
            "type" : "VEC3"
        },
        {
            "bufferView" : 3,
            "componentType" : 5123,
            "count" : 11928,
            "type" : "SCALAR"
        },
        {
            "bufferView" : 4,
            "componentType" : 5126,
            "count" : 3506,
            "max" : [
                2.097670555114746,
                2.772022247314453,
                2.7792317867279053
            ],
            "min" : [
                -0.13887405395507812,
                -2.7751083374023438,
                -2.756951093673706
            ],
            "type" : "VEC3"
        },
        {
            "bufferView" : 5,
            "componentType" : 5126,
            "count" : 3506,
            "type" : "VEC2"
        },
        {
            "bufferView" : 6,
            "componentType" : 5126,
            "count" : 3506,
            "type" : "VEC3"
        },
        {
            "bufferView" : 7,
            "componentType" : 5123,
            "count" : 11928,
            "type" : "SCALAR"
        },
        {
            "bufferView" : 8,
            "componentType" : 5126,
            "count" : 3506,
            "max" : [
                0.1375265121459961,
                2.9185075759887695,
                2.926098346710205
            ],
            "min" : [
                -2.061828136444092,
                -2.9217586517333984,
                -2.9026408195495605
            ],
            "type" : "VEC3"
        },
        {
            "bufferView" : 9,
            "componentType" : 5126,
            "count" : 3506,
            "type" : "VEC2"
        },
        {
            "bufferView" : 10,
            "componentType" : 5126,
            "count" : 3506,
            "type" : "VEC3"
        },
        {
            "bufferView" : 11,
            "componentType" : 5123,
            "count" : 11928,
            "type" : "SCALAR"
        },
        {
            "bufferView" : 12,
            "componentType" : 5126,
            "count" : 3506,
            "max" : [
                2.0618224143981934,
                2.9185075759887695,
                2.926098108291626
            ],
            "min" : [
                -0.13753414154052734,
                -2.9217586517333984,
                -2.9026410579681396
            ],
            "type" : "VEC3"
        },
        {
            "bufferView" : 13,
            "componentType" : 5126,
            "count" : 3506,
            "type" : "VEC2"
        },
        {
            "bufferView" : 14,
            "componentType" : 5126,
            "count" : 3506,
            "type" : "VEC3"
        },
        {
            "bufferView" : 15,
            "componentType" : 5123,
            "count" : 11928,
            "type" : "SCALAR"
        },
        {
            "bufferView" : 16,
            "componentType" : 5126,
            "count" : 7845,
            "max" : [
                9.271573066711426,
                19.490196228027344,
                3.5441935062408447
            ],
            "min" : [
                -9.431955337524414,
                -18.699337005615234,
                -4.690749645233154
            ],
            "type" : "VEC3"
        },
        {
            "bufferView" : 17,
            "componentType" : 5126,
            "count" : 7845,
            "type" : "VEC2"
        },
        {
            "bufferView" : 18,
            "componentType" : 5126,
            "count" : 7845,
            "type" : "VEC3"
        },
        {
            "bufferView" : 19,
            "componentType" : 5123,
            "count" : 29472,
            "type" : "SCALAR"
        },
        {
            "bufferView" : 20,
            "componentType" : 5126,
            "count" : 391,
            "max" : [
                7.324506759643555,
                17.966371536254883,
                0.4046812057495117
            ],
            "min" : [
                -7.484889984130859,
                -16.225187301635742,
                -4.2961039543151855
            ],
            "type" : "VEC3"
        },
        {
            "bufferView" : 21,
            "componentType" : 5126,
            "count" : 391,
            "type" : "VEC2"
        },
        {
            "bufferView" : 22,
            "componentType" : 5126,
            "count" : 391,
            "type" : "VEC3"
        },
        {
            "bufferView" : 23,
            "componentType" : 5123,
            "count" : 1482,
            "type" : "SCALAR"
        },
        {
            "bufferView" : 24,
            "componentType" : 5126,
            "count" : 226,
            "max" : [
                8.341429710388184,
                18.282703399658203,
                3.329857349395752
            ],
            "min" : [
                -8.501809120178223,
                -16.942148208618164,
                -1.3078927993774414
            ],
            "type" : "VEC3"
        },
        {
            "bufferView" : 25,
            "componentType" : 5126,
            "count" : 226,
            "type" : "VEC2"
        },
        {
            "bufferView" : 26,
            "componentType" : 5126,
            "count" : 226,
            "type" : "VEC3"
        },
        {
            "bufferView" : 27,
            "componentType" : 5123,
            "count" : 546,
            "type" : "SCALAR"
        },
        {
            "bufferView" : 28,
            "componentType" : 5126,
            "count" : 6444,
            "max" : [
                7.481898784637451,
                12.52627182006836,
                3.123823404312134
            ],
            "min" : [
                -7.6422810554504395,
                -3.4911036491394043,
                -5.045899868011475
            ],
            "type" : "VEC3"
        },
        {
            "bufferView" : 29,
            "componentType" : 5126,
            "count" : 6444,
            "type" : "VEC2"
        },
        {
            "bufferView" : 30,
            "componentType" : 5126,
            "count" : 6444,
            "type" : "VEC3"
        },
        {
            "bufferView" : 31,
            "componentType" : 5123,
            "count" : 23175,
            "type" : "SCALAR"
        },
        {
            "bufferView" : 32,
            "componentType" : 5126,
            "count" : 7193,
            "max" : [
                8.448814392089844,
                18.979480743408203,
                3.541602373123169
            ],
            "min" : [
                -8.609195709228516,
                -17.488969802856445,
                -5.538262844085693
            ],
            "type" : "VEC3"
        },
        {
            "bufferView" : 33,
            "componentType" : 5126,
            "count" : 7193,
            "type" : "VEC2"
        },
        {
            "bufferView" : 34,
            "componentType" : 5126,
            "count" : 7193,
            "type" : "VEC3"
        },
        {
            "bufferView" : 35,
            "componentType" : 5123,
            "count" : 24207,
            "type" : "SCALAR"
        },
        {
            "bufferView" : 36,
            "componentType" : 5126,
            "count" : 296,
            "max" : [
                3.3616690635681152,
                18.320268630981445,
                0.2819032669067383
            ],
            "min" : [
                -3.295867919921875,
                -11.677349090576172,
                -3.8198723793029785
            ],
            "type" : "VEC3"
        },
        {
            "bufferView" : 37,
            "componentType" : 5126,
            "count" : 296,
            "type" : "VEC2"
        },
        {
            "bufferView" : 38,
            "componentType" : 5126,
            "count" : 296,
            "type" : "VEC3"
        },
        {
            "bufferView" : 39,
            "componentType" : 5123,
            "count" : 1344,
            "type" : "SCALAR"
        },
        {
            "bufferView" : 40,
            "componentType" : 5126,
            "count" : 163,
            "max" : [
                7.132745742797852,
                -14.662364959716797,
                -1.2763514518737793
            ],
            "min" : [
                -7.27186918258667,
                -16.225187301635742,
                -2.1737194061279297
            ],
            "type" : "VEC3"
        },
        {
            "bufferView" : 41,
            "componentType" : 5126,
            "count" : 163,
            "type" : "VEC2"
        },
        {
            "bufferView" : 42,
            "componentType" : 5126,
            "count" : 163,
            "type" : "VEC3"
        },
        {
            "bufferView" : 43,
            "componentType" : 5123,
            "count" : 726,
            "type" : "SCALAR"
        }
    ],
    "bufferViews" : [
        {
            "buffer" : 0,
            "byteLength" : 42072,
            "byteOffset" : 0,
            "target" : 34962
        },
        {
            "buffer" : 0,
            "byteLength" : 28048,
            "byteOffset" : 42072,
            "target" : 34962
        },
        {
            "buffer" : 0,
            "byteLength" : 42072,
            "byteOffset" : 70120,
            "target" : 34962
        },
        {
            "buffer" : 0,
            "byteLength" : 23856,
            "byteOffset" : 112192,
            "target" : 34963
        },
        {
            "buffer" : 0,
            "byteLength" : 42072,
            "byteOffset" : 136048,
            "target" : 34962
        },
        {
            "buffer" : 0,
            "byteLength" : 28048,
            "byteOffset" : 178120,
            "target" : 34962
        },
        {
            "buffer" : 0,
            "byteLength" : 42072,
            "byteOffset" : 206168,
            "target" : 34962
        },
        {
            "buffer" : 0,
            "byteLength" : 23856,
            "byteOffset" : 248240,
            "target" : 34963
        },
        {
            "buffer" : 0,
            "byteLength" : 42072,
            "byteOffset" : 272096,
            "target" : 34962
        },
        {
            "buffer" : 0,
            "byteLength" : 28048,
            "byteOffset" : 314168,
            "target" : 34962
        },
        {
            "buffer" : 0,
            "byteLength" : 42072,
            "byteOffset" : 342216,
            "target" : 34962
        },
        {
            "buffer" : 0,
            "byteLength" : 23856,
            "byteOffset" : 384288,
            "target" : 34963
        },
        {
            "buffer" : 0,
            "byteLength" : 42072,
            "byteOffset" : 408144,
            "target" : 34962
        },
        {
            "buffer" : 0,
            "byteLength" : 28048,
            "byteOffset" : 450216,
            "target" : 34962
        },
        {
            "buffer" : 0,
            "byteLength" : 42072,
            "byteOffset" : 478264,
            "target" : 34962
        },
        {
            "buffer" : 0,
            "byteLength" : 23856,
            "byteOffset" : 520336,
            "target" : 34963
        },
        {
            "buffer" : 0,
            "byteLength" : 94140,
            "byteOffset" : 544192,
            "target" : 34962
        },
        {
            "buffer" : 0,
            "byteLength" : 62760,
            "byteOffset" : 638332,
            "target" : 34962
        },
        {
            "buffer" : 0,
            "byteLength" : 94140,
            "byteOffset" : 701092,
            "target" : 34962
        },
        {
            "buffer" : 0,
            "byteLength" : 58944,
            "byteOffset" : 795232,
            "target" : 34963
        },
        {
            "buffer" : 0,
            "byteLength" : 4692,
            "byteOffset" : 854176,
            "target" : 34962
        },
        {
            "buffer" : 0,
            "byteLength" : 3128,
            "byteOffset" : 858868,
            "target" : 34962
        },
        {
            "buffer" : 0,
            "byteLength" : 4692,
            "byteOffset" : 861996,
            "target" : 34962
        },
        {
            "buffer" : 0,
            "byteLength" : 2964,
            "byteOffset" : 866688,
            "target" : 34963
        },
        {
            "buffer" : 0,
            "byteLength" : 2712,
            "byteOffset" : 869652,
            "target" : 34962
        },
        {
            "buffer" : 0,
            "byteLength" : 1808,
            "byteOffset" : 872364,
            "target" : 34962
        },
        {
            "buffer" : 0,
            "byteLength" : 2712,
            "byteOffset" : 874172,
            "target" : 34962
        },
        {
            "buffer" : 0,
            "byteLength" : 1092,
            "byteOffset" : 876884,
            "target" : 34963
        },
        {
            "buffer" : 0,
            "byteLength" : 77328,
            "byteOffset" : 877976,
            "target" : 34962
        },
        {
            "buffer" : 0,
            "byteLength" : 51552,
            "byteOffset" : 955304,
            "target" : 34962
        },
        {
            "buffer" : 0,
            "byteLength" : 77328,
            "byteOffset" : 1006856,
            "target" : 34962
        },
        {
            "buffer" : 0,
            "byteLength" : 46350,
            "byteOffset" : 1084184,
            "target" : 34963
        },
        {
            "buffer" : 0,
            "byteLength" : 86316,
            "byteOffset" : 1130536,
            "target" : 34962
        },
        {
            "buffer" : 0,
            "byteLength" : 57544,
            "byteOffset" : 1216852,
            "target" : 34962
        },
        {
            "buffer" : 0,
            "byteLength" : 86316,
            "byteOffset" : 1274396,
            "target" : 34962
        },
        {
            "buffer" : 0,
            "byteLength" : 48414,
            "byteOffset" : 1360712,
            "target" : 34963
        },
        {
            "buffer" : 0,
            "byteLength" : 3552,
            "byteOffset" : 1409128,
            "target" : 34962
        },
        {
            "buffer" : 0,
            "byteLength" : 2368,
            "byteOffset" : 1412680,
            "target" : 34962
        },
        {
            "buffer" : 0,
            "byteLength" : 3552,
            "byteOffset" : 1415048,
            "target" : 34962
        },
        {
            "buffer" : 0,
            "byteLength" : 2688,
            "byteOffset" : 1418600,
            "target" : 34963
        },
        {
            "buffer" : 0,
            "byteLength" : 1956,
            "byteOffset" : 1421288,
            "target" : 34962
        },
        {
            "buffer" : 0,
            "byteLength" : 1304,
            "byteOffset" : 1423244,
            "target" : 34962
        },
        {
            "buffer" : 0,
            "byteLength" : 1956,
            "byteOffset" : 1424548,
            "target" : 34962
        },
        {
            "buffer" : 0,
            "byteLength" : 1452,
            "byteOffset" : 1426504,
            "target" : 34963
        }
    ],
    "buffers" : [
        {
            "byteLength" : 1427956,
            "uri" : "data:application/octet-stream;base64,"
        }
    ]
}
